<svg width="297" height="51" viewBox="0 0 297 51" fill="none" xmlns="http://www.w3.org/2000/svg">
<path d="M270.853 31.2021C271.187 31.0351 271.835 30.7121 271.835 29.5611C271.835 28.7351 271.333 27.5061 269.368 27.5061H265.475V35.5191H268.868C270.509 35.5191 270.944 35.2401 271.401 34.7911C271.823 34.3811 272.091 33.7761 272.091 33.1431C272.091 32.3501 271.835 31.5691 270.853 31.2021ZM267.083 28.8931H269.003C269.761 28.8931 270.23 29.0931 270.23 29.7511C270.23 30.3891 269.707 30.6451 269.046 30.6451H267.083V28.8931ZM269.134 34.1351H267.083V31.9921H269.214C269.818 31.9921 270.419 32.2631 270.419 32.9631C270.417 33.7761 269.948 34.1351 269.134 34.1351Z" fill="#E9ECE0"/>
<path d="M265.476 36.7881V37.5161H266.716V40.8931H267.571V37.5161H268.814V36.7881H265.476Z" fill="#E9ECE0"/>
<path d="M293.066 30.7869L296.336 27.5049H294.172L291.114 30.7619V27.5049H289.44V35.5159H291.114V32.8049L291.895 32.0009L294.371 35.5159H296.525L293.066 30.7869Z" fill="#E9ECE0"/>
<path d="M277.361 27.5049H275.431L272.577 35.5169H274.339L274.896 33.8669H277.853L278.367 35.5159H280.185L277.361 27.5049ZM275.342 32.4809L276.369 29.3129H276.392L277.384 32.4809H275.342Z" fill="#E9ECE0"/>
<path d="M284.829 11.805C284.327 11.212 283.774 10.659 283.124 10.18C282.802 9.938 282.458 9.715 282.081 9.515C281.701 9.319 281.312 9.13 280.847 9C280.855 9.483 280.939 9.908 281.038 10.324C281.132 10.728 281.259 11.107 281.407 11.471C281.053 11.575 280.623 11.721 280.139 11.909C279.826 12.049 279.483 12.175 279.137 12.362C278.786 12.53 278.43 12.734 278.069 12.962C277.702 13.169 277.36 13.463 277.001 13.717C276.674 14.028 276.315 14.297 276.024 14.65C275.723 14.988 275.429 15.326 275.202 15.71C275.087 15.897 274.954 16.07 274.858 16.261C274.766 16.455 274.678 16.648 274.592 16.836C274.397 17.2 274.308 17.592 274.206 17.949C274.085 18.303 274.042 18.65 274.009 18.97C273.982 19.289 273.915 19.571 273.931 19.831C273.939 20.087 273.945 20.309 273.951 20.493C273.962 20.856 273.965 21.063 273.965 21.063C273.965 21.063 274.004 20.858 274.07 20.501C274.103 20.324 274.144 20.111 274.191 19.865C274.228 19.62 274.355 19.36 274.443 19.073C274.537 18.786 274.646 18.48 274.826 18.186C274.99 17.887 275.139 17.564 275.381 17.285C275.49 17.142 275.602 16.994 275.713 16.847C275.83 16.704 275.98 16.581 276.109 16.447C276.363 16.17 276.673 15.946 276.98 15.724C277.273 15.491 277.63 15.334 277.939 15.143C278.291 15.002 278.601 14.826 278.947 14.724C279.277 14.604 279.602 14.503 279.92 14.431C280.229 14.341 280.54 14.301 280.811 14.243C280.985 14.218 281.145 14.197 281.299 14.178C281.281 14.224 281.262 14.268 281.246 14.315C281.088 14.748 280.965 15.203 280.879 15.682C280.84 15.925 280.808 16.171 280.783 16.422C280.763 16.677 280.759 16.941 280.777 17.219C281.038 17.119 281.275 17.006 281.5 16.883C281.717 16.756 281.93 16.624 282.133 16.488C282.536 16.211 282.899 15.91 283.227 15.588C283.891 14.946 284.44 14.229 284.901 13.458L284.96 13.36C285.243 12.881 285.21 12.254 284.829 11.805Z" fill="#E9ECE0"/>
<path d="M272.578 39.9651C272.578 39.1991 272.394 39.0731 272.057 38.9251C272.463 38.7881 272.692 38.4011 272.692 37.9461C272.692 37.5921 272.493 36.7871 271.401 36.7871H269.325V40.8901H270.167V39.2851H271.052C271.687 39.2851 271.722 39.5031 271.722 40.0611C271.722 40.4831 271.755 40.6971 271.812 40.8891H272.761V40.7821C272.578 40.7141 272.578 40.5641 272.578 39.9651ZM271.169 38.5961H270.166V37.4961H271.234C271.736 37.4961 271.834 37.8141 271.834 38.0331C271.833 38.4371 271.617 38.5961 271.169 38.5961Z" fill="#E9ECE0"/>
<path d="M288.339 37.5161V36.7881H285.419V40.8941H286.277V39.1681H288.083V38.4421H286.277V37.5161H288.339Z" fill="#E9ECE0"/>
<path d="M289.755 40.165V39.105H291.755V38.379H289.755V37.517H291.934V36.79H288.915V40.893H292.03V40.165H289.755Z" fill="#E9ECE0"/>
<path d="M283.691 38.553L282.693 38.307C282.521 38.266 282.257 38.197 282.257 37.877C282.257 37.506 282.648 37.387 282.972 37.387C283.722 37.387 283.791 37.82 283.814 38.003H284.634C284.628 37.5 284.292 36.678 283.034 36.678C281.702 36.678 281.457 37.483 281.457 37.94C281.457 38.844 282.096 38.995 282.76 39.147L283.199 39.251C283.632 39.356 283.942 39.44 283.942 39.762C283.942 40.191 283.489 40.291 283.086 40.291C282.336 40.291 282.221 39.857 282.215 39.628H281.395C281.395 40.139 281.65 41 283.148 41C283.506 41 284.765 40.888 284.765 39.657C284.764 38.92 284.25 38.689 283.691 38.553Z" fill="#E9ECE0"/>
<path d="M295.982 39.9651C295.982 39.1991 295.796 39.0731 295.461 38.9251C295.865 38.7881 296.098 38.4011 296.098 37.9461C296.098 37.5921 295.897 36.7871 294.805 36.7871H292.731V40.8901H293.573V39.2851H294.458C295.091 39.2851 295.128 39.5031 295.128 40.0611C295.128 40.4831 295.161 40.6971 295.219 40.8891H296.165V40.7821C295.982 40.7141 295.982 40.5641 295.982 39.9651ZM294.576 38.5961H293.572V37.4961H294.638C295.142 37.4961 295.24 37.8141 295.24 38.0331C295.24 38.4371 295.023 38.5961 294.576 38.5961Z" fill="#E9ECE0"/>
<path d="M286.145 27.5081V33.0861H286.124L282.943 27.5081H281.18V35.5201H282.742L282.744 29.8081H282.765L286.035 35.5211H287.707V27.5081H286.145Z" fill="#E9ECE0"/>
<path d="M275.474 36.7881H274.483L273.02 40.8911H273.924L274.209 40.0441H275.723L275.987 40.8911H276.919L275.474 36.7881ZM274.439 39.3361L274.966 37.7141H274.974L275.486 39.3361H274.439Z" fill="#E9ECE0"/>
<path d="M279.976 36.7881L279.975 39.6441H279.965L278.334 36.7881H277.432V40.8911H278.231V37.9641H278.244L279.918 40.8911H280.777V36.7881H279.976Z" fill="#E9ECE0"/>
<path d="M286.957 14.66C286.938 14.298 286.922 14.092 286.922 14.092C286.922 14.092 286.893 14.297 286.832 14.656C286.803 14.833 286.77 15.048 286.731 15.295C286.701 15.541 286.582 15.804 286.502 16.094C286.419 16.384 286.32 16.692 286.148 16.992C285.994 17.296 285.855 17.622 285.621 17.909C285.517 18.056 285.41 18.206 285.304 18.358C285.189 18.503 285.045 18.631 284.916 18.769C284.672 19.052 284.369 19.287 284.068 19.517C283.785 19.759 283.431 19.925 283.127 20.126C282.781 20.277 282.476 20.463 282.133 20.574C281.808 20.705 281.485 20.815 281.169 20.896C280.864 20.996 280.556 21.045 280.286 21.11C280.113 21.141 279.952 21.167 279.8 21.19C279.814 21.143 279.833 21.099 279.849 21.052C279.993 20.613 280.103 20.155 280.175 19.674C280.206 19.43 280.229 19.183 280.247 18.931C280.26 18.676 280.256 18.411 280.231 18.135C279.973 18.241 279.739 18.362 279.518 18.492C279.303 18.625 279.098 18.763 278.897 18.905C278.505 19.194 278.151 19.505 277.833 19.838C277.189 20.499 276.662 21.232 276.224 22.017L276.167 22.115C275.898 22.603 275.95 23.228 276.345 23.666C276.865 24.243 277.435 24.78 278.097 25.239C278.425 25.472 278.776 25.684 279.161 25.872C279.544 26.058 279.938 26.236 280.409 26.351C280.384 25.87 280.286 25.448 280.179 25.035C280.072 24.634 279.935 24.258 279.775 23.899C280.127 23.784 280.55 23.626 281.029 23.424C281.337 23.276 281.676 23.138 282.017 22.941C282.361 22.764 282.713 22.549 283.062 22.31C283.422 22.092 283.756 21.788 284.109 21.523C284.426 21.204 284.777 20.922 285.058 20.562C285.349 20.215 285.631 19.87 285.847 19.479C285.957 19.288 286.082 19.111 286.174 18.917C286.258 18.72 286.342 18.525 286.422 18.334C286.606 17.964 286.684 17.569 286.776 17.21C286.884 16.854 286.92 16.505 286.942 16.185C286.963 15.866 287.018 15.581 286.996 15.322C286.979 15.067 286.967 14.844 286.957 14.66Z" fill="#E9ECE0"/>
<g clip-path="url(#clip0_9701_394)">
<path d="M197.153 17.7991L194.722 32.0651H198.61L201.043 17.7991H197.153Z" fill="#E9ECE0"/>
<path d="M191.462 17.815L187.654 27.544L187.248 26.075C186.497 24.305 184.365 21.763 181.862 20.161L185.344 32.058L189.458 32.051L195.581 17.812L191.462 17.815Z" fill="#E9ECE0"/>
<path d="M185.772 18.836C185.546 17.967 184.891 17.708 184.078 17.677H178.05L178 17.961C182.691 19.099 185.795 21.841 187.083 25.138L185.772 18.836Z" fill="#E9ECE0"/>
<path d="M208.923 20.534C210.195 20.514 211.117 20.792 211.833 21.08L212.184 21.245L212.71 18.153C211.94 17.864 210.733 17.554 209.227 17.554C205.385 17.554 202.677 19.489 202.656 22.262C202.631 24.311 204.585 25.455 206.061 26.138C207.576 26.838 208.084 27.283 208.077 27.908C208.065 28.863 206.869 29.301 205.752 29.301C204.195 29.301 203.368 29.086 202.091 28.554L201.59 28.326L201.043 31.519C201.953 31.918 203.632 32.261 205.375 32.279C209.462 32.279 212.118 30.367 212.146 27.404C212.163 25.783 211.126 24.546 208.879 23.531C207.519 22.869 206.687 22.429 206.695 21.761C206.695 21.168 207.401 20.534 208.923 20.534Z" fill="#E9ECE0"/>
<path d="M222.688 17.8149H219.684C218.751 17.8149 218.057 18.0689 217.647 18.9989L211.874 32.0729H215.957C215.957 32.0729 216.623 30.3149 216.774 29.9299C217.221 29.9299 221.188 29.9359 221.753 29.9359C221.869 30.4339 222.227 32.0729 222.227 32.0729H225.834L222.688 17.8149ZM217.893 27.0099C218.213 26.1909 219.442 23.0229 219.442 23.0229C219.421 23.0619 219.759 22.1979 219.96 21.6609L220.222 22.8909C220.222 22.8909 220.967 26.2969 221.123 27.0099H217.893Z" fill="#E9ECE0"/>
</g>
<g clip-path="url(#clip1_9701_394)">
<path d="M123.933 10.7161C120.192 10.7171 116.782 12.1351 114.212 14.4641C111.64 12.1381 108.232 10.7191 104.495 10.7191C104.464 10.7191 104.432 10.7191 104.402 10.7191C96.444 10.7711 90 17.2451 90 25.2141C90 33.2151 96.494 39.7081 104.494 39.7081C108.231 39.7081 111.639 38.2911 114.21 35.9631C113.673 35.4781 113.187 34.9411 112.728 34.3791H115.721C115.27 34.9321 114.778 35.4501 114.249 35.9321H114.247C114.235 35.9451 114.222 35.9531 114.21 35.9641C116.783 38.2941 120.195 39.7141 123.938 39.7131C131.943 39.7101 138.43 33.2181 138.428 25.2141C138.428 25.2111 138.428 25.2091 138.428 25.2071C138.429 17.2031 131.938 10.7141 123.933 10.7161ZM112.894 15.9611H115.649C116.055 16.4531 116.432 16.9711 116.774 17.5131H111.859C112.176 16.9951 112.524 16.4621 112.894 15.9611ZM111.003 19.0351H117.61C117.845 19.5371 118.053 20.0561 118.235 20.5881H110.22C110.3 20.4381 110.58 19.8341 111.003 19.0351ZM95.917 28.9061L96.796 23.3641L94.813 28.9061H93.75L93.612 23.3641L92.673 28.9061H91.184L92.418 21.5561H94.67L94.749 26.0661L96.27 21.5561H98.713L97.496 28.9061H95.917ZM101.182 28.8941L101.233 28.3071C101.209 28.3101 100.739 29.0161 99.65 29.0161C99.08 29.0161 98.16 28.7051 98.16 27.3531C98.16 25.6341 99.562 25.0641 100.897 25.0641C101.107 25.0641 101.56 25.1021 101.56 25.1021C101.56 25.1021 101.611 24.9971 101.611 24.7131C101.611 24.2461 101.191 24.1821 100.616 24.1821C99.603 24.1821 98.934 24.4531 98.934 24.4531L99.158 23.1231C99.158 23.1231 99.97 22.7831 101.027 22.7831C101.574 22.7831 103.147 22.8411 103.147 24.6441L102.541 28.8941H101.182ZM106.925 27.0221C106.925 29.0731 104.938 28.9851 104.591 28.9851C103.296 28.9851 102.896 28.8061 102.859 28.7961L103.065 27.4461C103.067 27.4341 103.715 27.6811 104.436 27.6811C104.852 27.6811 105.392 27.6401 105.392 27.1431C105.392 26.3991 103.46 26.5771 103.46 24.8101C103.46 23.2511 104.618 22.7951 105.76 22.7951C106.642 22.7951 107.184 22.9161 107.184 22.9161L106.989 24.2781C106.989 24.2781 106.152 24.2091 105.935 24.2091C105.386 24.2091 105.087 24.3291 105.087 24.7131C105.086 25.4851 106.925 25.1071 106.925 27.0221ZM109.311 27.5601C109.448 27.5601 109.603 27.5131 109.709 27.5131L109.516 28.8241C109.361 28.8671 108.922 29.0231 108.359 29.0271C107.64 29.0331 107.129 28.6311 107.129 27.7191C107.129 27.1071 108.006 22.0641 108.04 22.0311H109.583L109.426 22.9331H110.196L109.999 24.3861H109.182L108.748 27.0631C108.715 27.2761 108.774 27.5601 109.311 27.5601ZM112.705 22.7631C114.399 22.7631 114.906 24.0031 114.906 25.0201C114.906 25.4271 114.702 26.4271 114.702 26.4271H111.566C111.566 26.4271 111.276 27.6621 112.933 27.6621C113.71 27.6621 114.572 27.2821 114.572 27.2821L114.3 28.7691C114.3 28.7691 113.802 29.0231 112.67 29.0231C111.443 29.0231 110.004 28.5041 110.004 26.3241C110.005 24.4351 111.153 22.7631 112.705 22.7631ZM116.792 32.8861H111.65C111.337 32.3861 111.045 31.8731 110.794 31.3341H117.637C117.385 31.8701 117.103 32.3881 116.792 32.8861ZM116.447 28.9171H114.863L115.826 22.9351H117.263L117.125 23.8021C117.125 23.8021 117.637 22.8591 118.328 22.8591C118.529 22.8591 118.626 22.8791 118.626 22.8791C118.421 23.2971 118.24 23.6801 118.052 24.6691C116.98 24.2891 116.898 26.3621 116.447 28.9171ZM122.482 28.8241C122.482 28.8241 121.652 29.0361 121.132 29.0361C119.29 29.0361 118.355 27.7651 118.355 25.8401C118.355 22.9371 120.088 21.3911 121.869 21.3911C122.674 21.3911 123.607 21.7691 123.607 21.7691L123.355 23.4041C123.355 23.4041 122.724 22.9631 121.939 22.9631C120.889 22.9631 119.947 23.9651 119.947 25.7861C119.947 26.6831 120.386 27.5191 121.482 27.5191C122.003 27.5191 122.758 27.1401 122.758 27.1401L122.482 28.8241ZM126.197 28.8971L126.249 28.3061C126.224 28.3091 125.754 29.0151 124.666 29.0151C124.096 29.0151 123.176 28.7041 123.176 27.3521C123.176 25.6331 124.578 25.0631 125.912 25.0631C126.122 25.0631 126.576 25.1011 126.576 25.1011C126.576 25.1011 126.628 24.9971 126.628 24.7131C126.628 24.2461 126.208 24.1821 125.632 24.1821C124.619 24.1821 123.951 24.4531 123.951 24.4531L124.175 23.1231C124.175 23.1231 124.987 22.7831 126.045 22.7831C126.591 22.7831 128.165 22.8411 128.164 24.6441L127.558 28.8941C127.557 28.8971 126.197 28.8971 126.197 28.8971ZM129.404 28.9171H127.82L128.783 22.9351H130.221L130.083 23.8021C130.083 23.8021 130.596 22.8591 131.287 22.8591C131.488 22.8591 131.584 22.8791 131.584 22.8791C131.38 23.2971 131.197 23.6801 131.01 24.6691C129.937 24.2891 129.855 26.3621 129.404 28.9171ZM134.133 28.9011L134.2 28.3501C134.2 28.3501 133.688 28.9961 132.762 28.9961C131.479 28.9961 130.85 27.7571 130.85 26.4911C130.85 24.5331 132.028 22.8261 133.442 22.8261C134.352 22.8281 134.933 23.6311 134.933 23.6311L135.267 21.5661L136.814 21.5631L135.634 28.9011H134.133ZM137.185 28.6941C137.144 28.7681 137.086 28.8251 137.012 28.8691C136.939 28.9101 136.861 28.9311 136.779 28.9311C136.699 28.9311 136.622 28.9101 136.548 28.8691C136.474 28.8251 136.416 28.7681 136.375 28.6941C136.333 28.6191 136.313 28.5431 136.313 28.4621C136.313 28.3801 136.334 28.3021 136.375 28.2281C136.416 28.1541 136.477 28.0941 136.55 28.0541C136.626 28.0131 136.701 27.9921 136.779 27.9921C136.859 27.9921 136.935 28.0131 137.009 28.0541C137.085 28.0951 137.143 28.1521 137.185 28.2281C137.228 28.3031 137.247 28.3811 137.247 28.4621C137.247 28.5431 137.227 28.6201 137.185 28.6941Z" fill="#E9ECE0"/>
<path d="M137.061 33.117C137.051 33.11 137.042 33.099 137.026 33.093C137.01 33.087 136.985 33.084 136.946 33.084H136.852V33.234H136.952C136.999 33.234 137.03 33.23 137.048 33.213C137.065 33.199 137.073 33.182 137.073 33.158C137.073 33.142 137.069 33.131 137.061 33.117Z" fill="#E9ECE0"/>
<path d="M137.384 33.027C137.341 32.949 137.282 32.894 137.207 32.853C137.132 32.812 137.056 32.791 136.978 32.791C136.898 32.791 136.822 32.812 136.748 32.853C136.674 32.894 136.613 32.951 136.572 33.027C136.529 33.101 136.51 33.179 136.51 33.259C136.51 33.339 136.531 33.418 136.572 33.491C136.615 33.565 136.673 33.625 136.746 33.666C136.82 33.707 136.898 33.728 136.98 33.728C137.06 33.728 137.138 33.707 137.211 33.666C137.284 33.625 137.343 33.565 137.384 33.491C137.426 33.418 137.446 33.34 137.446 33.259C137.446 33.178 137.425 33.1 137.384 33.027ZM137.096 33.519L137.052 33.44C137.017 33.378 136.988 33.337 136.966 33.321C136.952 33.311 136.93 33.303 136.902 33.303H136.855V33.518H136.773V33.013H136.947C137.007 33.013 137.05 33.018 137.074 33.028C137.101 33.038 137.124 33.052 137.138 33.077C137.154 33.1 137.161 33.125 137.161 33.151C137.161 33.188 137.147 33.219 137.122 33.248C137.096 33.274 137.06 33.291 137.017 33.294C137.035 33.3 137.049 33.31 137.06 33.321C137.081 33.341 137.105 33.374 137.135 33.42L137.197 33.519H137.096Z" fill="#E9ECE0"/>
<path d="M101.022 26.2109C99.891 26.2109 99.662 26.7189 99.662 27.1419C99.662 27.3599 99.787 27.7239 100.266 27.7239C101.195 27.7239 101.388 26.5059 101.358 26.2469C101.314 26.2379 101.286 26.2119 101.022 26.2109Z" fill="#E9ECE0"/>
<path d="M112.711 24.144C111.87 24.144 111.708 25.101 111.708 25.202H113.421C113.421 25.125 113.582 24.144 112.711 24.144Z" fill="#E9ECE0"/>
<path d="M133.709 24.311C133.03 24.311 132.493 25.099 132.494 26.296C132.494 27.026 132.754 27.494 133.31 27.494C134.146 27.494 134.549 26.403 134.549 25.59C134.549 24.693 134.264 24.311 133.709 24.311Z" fill="#E9ECE0"/>
<path d="M137.115 28.268C137.08 28.206 137.031 28.158 136.969 28.123C136.907 28.088 136.844 28.071 136.778 28.071C136.714 28.071 136.649 28.089 136.587 28.123C136.525 28.155 136.476 28.205 136.441 28.268C136.406 28.331 136.388 28.398 136.388 28.463C136.388 28.53 136.406 28.596 136.439 28.657C136.476 28.719 136.523 28.766 136.585 28.803C136.647 28.837 136.711 28.857 136.778 28.857C136.845 28.857 136.911 28.837 136.971 28.803C137.033 28.768 137.081 28.72 137.117 28.657C137.152 28.595 137.168 28.53 137.168 28.463C137.168 28.397 137.15 28.331 137.115 28.268ZM136.898 28.72L136.853 28.642C136.818 28.579 136.79 28.539 136.769 28.524C136.752 28.511 136.732 28.505 136.703 28.505H136.657V28.719H136.573V28.215H136.748C136.807 28.215 136.851 28.22 136.876 28.231C136.901 28.24 136.923 28.257 136.94 28.279C136.957 28.301 136.963 28.326 136.963 28.353C136.963 28.39 136.949 28.421 136.923 28.449C136.897 28.478 136.861 28.49 136.819 28.495C136.839 28.503 136.852 28.512 136.862 28.521C136.883 28.542 136.907 28.572 136.936 28.62L136.998 28.72H136.898Z" fill="#E9ECE0"/>
<path d="M126.039 26.2109C124.908 26.2109 124.679 26.7189 124.679 27.1419C124.679 27.3599 124.803 27.7239 125.283 27.7239C126.212 27.7239 126.404 26.5059 126.375 26.2469C126.33 26.2379 126.302 26.2119 126.039 26.2109Z" fill="#E9ECE0"/>
<path d="M136.864 28.318C136.856 28.308 136.845 28.3 136.83 28.293C136.813 28.288 136.788 28.283 136.748 28.283V28.284H136.657V28.436H136.756C136.803 28.436 136.834 28.43 136.853 28.415C136.868 28.4 136.877 28.381 136.877 28.359C136.877 28.342 136.873 28.332 136.864 28.318Z" fill="#E9ECE0"/>
</g>
<g clip-path="url(#clip2_9701_394)">
<path d="M9.035 20.604C8.87 20.273 8.609 20 8.285 19.795C7.947 19.588 7.548 19.443 7.092 19.357C6.628 19.273 6.092 19.235 5.471 19.229L2.604 19.231C2.306 19.235 2.014 19.467 1.944 19.755L0.0149968 28.157C-0.0550032 28.441 0.131997 28.679 0.429997 28.679H1.803C2.101 28.679 2.396 28.448 2.462 28.157L2.933 26.117C2.996 25.833 3.29 25.596 3.591 25.596H3.984C5.663 25.594 6.963 25.251 7.897 24.564C8.836 23.876 9.299 22.967 9.299 21.841C9.298 21.348 9.217 20.934 9.035 20.604ZM6.074 23.349C5.659 23.653 5.082 23.805 4.338 23.805H4.002C3.703 23.805 3.52 23.569 3.585 23.281L3.998 21.497C4.056 21.211 4.357 20.974 4.652 20.976L5.102 20.973C5.627 20.973 6.028 21.064 6.296 21.24C6.561 21.414 6.694 21.691 6.692 22.058C6.7 22.616 6.487 23.045 6.074 23.349Z" fill="#E9ECE0"/>
<path d="M48.175 19.8871L48.089 19.9131L47.974 19.9291L47.833 19.9071L47.761 19.8371L47.728 19.7271L47.726 19.5621V18.9511H48.185V18.7621H47.726V18.3811H47.499V18.7621H47.345V18.9511H47.499V19.6621L47.605 20.0141L47.917 20.1261L48.048 20.1151L48.187 20.0881V19.8871H48.175Z" fill="#E9ECE0"/>
<path d="M50.304 18.8591L49.976 18.7241L49.734 18.7731L49.488 18.9391L49.345 18.7801L49.113 18.7251L48.89 18.7741L48.679 18.9101V18.7621H48.456V20.0971H48.678V19.1001L48.865 18.9841L49.051 18.9381L49.203 18.9651L49.278 19.0421L49.311 19.1701L49.322 19.3351V20.0981H49.545V19.2441L49.541 19.1731L49.537 19.1081L49.727 18.9871L49.915 18.9401L50.062 18.9671L50.142 19.0441L50.17 19.1731L50.185 19.3361V20.0991H50.409V19.2321L50.304 18.8591Z" fill="#E9ECE0"/>
<path d="M15.656 21.8049C15.138 21.5129 14.32 21.3669 13.202 21.3669C12.649 21.3669 12.098 21.4099 11.541 21.4959C11.13 21.5589 11.09 21.5709 10.837 21.6259C10.315 21.7399 10.233 22.2609 10.233 22.2609L10.065 22.9519C9.96999 23.3929 10.224 23.3759 10.33 23.3389C10.558 23.2709 10.685 23.2009 11.151 23.0969C11.596 22.9959 12.065 22.9199 12.437 22.9249C12.986 22.9249 13.406 22.9829 13.686 23.1009C13.962 23.2209 14.1 23.4269 14.1 23.7249L14.076 23.9189L13.878 24.0409C13.099 24.0899 12.536 24.1619 11.853 24.2609C11.185 24.3539 10.599 24.5169 10.112 24.7399C9.58899 24.9699 9.20099 25.2789 8.92999 25.6719C8.66799 26.0669 8.53699 26.5459 8.53699 27.1079C8.53699 27.6369 8.72699 28.0739 9.09599 28.4119C9.46699 28.7439 9.95699 28.9059 10.543 28.9059C10.914 28.9039 11.201 28.8749 11.405 28.8259L12.07 28.5969L12.633 28.2849L13.151 27.9429L13.158 27.9529L13.106 28.1729L13.103 28.1819V28.1839C13.047 28.4519 13.209 28.6719 13.47 28.6979L13.475 28.7039H13.499H14.552H14.75L14.768 28.6959C15.042 28.6639 15.299 28.4439 15.359 28.1819L16.36 23.8489L16.412 23.4959L16.436 23.1649C16.44 22.5509 16.175 22.0959 15.656 21.8049ZM13.442 26.6769L13.228 26.9589L12.688 27.2379C12.434 27.3409 12.193 27.3929 11.97 27.3929C11.632 27.3929 11.367 27.3439 11.188 27.2439L10.923 26.7289C10.923 26.4499 10.987 26.2289 11.124 26.0589L11.706 25.6629C11.955 25.5789 12.259 25.5079 12.611 25.4589C12.925 25.4199 13.545 25.3489 13.626 25.3469L13.721 25.5139C13.702 25.6089 13.526 26.3449 13.442 26.6769Z" fill="#E9ECE0"/>
<path d="M40.594 21.8111C40.073 21.5191 39.256 21.3721 38.141 21.3721C37.588 21.3721 37.036 21.4151 36.481 21.5041C36.069 21.5641 36.028 21.5771 35.774 21.6311C35.253 21.7441 35.172 22.2671 35.172 22.2671L35.004 22.9571C34.91 23.3981 35.158 23.3781 35.274 23.3441C35.503 23.2761 35.626 23.2091 36.088 23.1011C36.531 23.0011 37.004 22.9271 37.377 22.9291C37.924 22.9291 38.344 22.9881 38.623 23.1061C38.901 23.2261 39.037 23.4341 39.037 23.7291L39.016 23.9221L38.82 24.0471C38.033 24.0941 37.469 24.1661 36.793 24.2651C36.127 24.3581 35.539 24.5201 35.051 24.7441C34.53 24.9751 34.137 25.2841 33.869 25.6781C33.604 26.0731 33.475 26.5511 33.475 27.1081C33.475 27.6411 33.663 28.0781 34.037 28.4141C34.41 28.7451 34.895 28.9111 35.481 28.9111C35.85 28.9071 36.137 28.8831 36.342 28.8301L37.005 28.6041L37.573 28.2921L38.087 27.9461L38.096 27.9571L38.049 28.1791L38.044 28.1831L38.046 28.1871C37.984 28.4551 38.147 28.6771 38.411 28.7011L38.413 28.7061H38.437C38.61 28.7061 39.208 28.7061 39.493 28.7061H39.687L39.708 28.6991C39.979 28.6661 40.235 28.4461 40.292 28.1811L41.296 23.8541L41.349 23.4991L41.378 23.1671C41.379 22.5551 41.117 22.1021 40.594 21.8111ZM38.385 26.6831L38.162 26.9681L37.627 27.2451C37.373 27.3471 37.131 27.4001 36.912 27.4001C36.563 27.4001 36.305 27.3501 36.131 27.2501L35.863 26.7371C35.863 26.4571 35.928 26.2381 36.059 26.0651C36.192 25.9021 36.395 25.7681 36.647 25.6701C36.893 25.5861 37.197 25.5181 37.551 25.4671C37.863 25.4281 38.481 25.3551 38.561 25.3541L38.658 25.5211C38.644 25.6161 38.467 26.3491 38.385 26.6831Z" fill="#E9ECE0"/>
<path d="M33.969 20.635C33.797 20.302 33.539 20.033 33.213 19.823C32.879 19.615 32.483 19.469 32.02 19.385C31.565 19.304 31.022 19.26 30.405 19.259L27.534 19.261C27.235 19.266 26.948 19.498 26.879 19.783L24.948 28.189C24.878 28.474 25.07 28.71 25.362 28.71L26.737 28.708C27.029 28.71 27.328 28.476 27.397 28.188L27.862 26.147C27.93 25.863 28.225 25.624 28.522 25.626H28.915C30.596 25.626 31.899 25.28 32.837 24.595C33.764 23.902 34.233 22.995 34.233 21.868C34.228 21.377 34.143 20.962 33.969 20.635ZM31.008 23.384C30.594 23.682 30.016 23.834 29.276 23.834H28.934C28.639 23.837 28.448 23.597 28.514 23.311L28.93 21.53C28.991 21.245 29.289 21.006 29.586 21.009L30.031 21.006C30.559 21.009 30.955 21.096 31.225 21.272C31.494 21.448 31.621 21.724 31.624 22.09C31.627 22.648 31.42 23.078 31.008 23.384Z" fill="#E9ECE0"/>
<path d="M45.742 19.85C45.805 19.563 45.625 19.33 45.33 19.334H44.1C43.848 19.334 43.621 19.521 43.51 19.751L43.442 19.857L43.38 20.129L41.661 27.943L41.605 28.183L41.607 28.189C41.55 28.446 41.708 28.64 41.952 28.677L41.973 28.706H43.25C43.5 28.706 43.735 28.516 43.842 28.282L43.908 28.182L45.746 19.851L45.742 19.85Z" fill="#E9ECE0"/>
<path d="M24.986 21.472C24.661 21.476 23.34 21.472 23.34 21.472C23.044 21.472 22.664 21.711 22.476 21.996C22.476 21.996 20.51 25.37 20.319 25.709L20.091 25.706L19.479 22.019C19.411 21.729 19.108 21.481 18.731 21.481L17.501 21.483C17.205 21.483 17.023 21.719 17.09 22.007C17.09 22.007 18.024 27.322 18.211 28.573C18.298 29.263 18.2 29.386 18.2 29.386L16.984 31.504C16.804 31.792 16.901 32.027 17.196 32.027L18.618 32.025C18.914 32.025 19.303 31.792 19.479 31.503L24.949 22.251C24.949 22.252 25.475 21.461 24.986 21.472Z" fill="#E9ECE0"/>
</g>
<defs>
<clipPath id="clip0_9701_394">
<rect width="47.834" height="47.834" fill="white" transform="translate(178 1)"/>
</clipPath>
<clipPath id="clip1_9701_394">
<rect width="48.428" height="48.428" fill="white" transform="translate(90 1)"/>
</clipPath>
<clipPath id="clip2_9701_394">
<rect width="50.409" height="50.409" fill="white"/>
</clipPath>
</defs>
</svg>
